<mxfile host="app.diagrams.net" modified="2023-03-14T02:03:53.950Z" agent="5.0 (Windows NT 10.0; Win64; x64) AppleWebKit/537.36 (KHTML, like Gecko) Chrome/110.0.0.0 Safari/537.36" etag="eSQiSeKJnwqiVAaZsRmZ" version="20.8.20" type="github">
  <diagram name="第 1 页" id="Db-j_NnAYlp3FomaCUfg">
    <mxGraphModel dx="1434" dy="764" grid="0" gridSize="10" guides="1" tooltips="1" connect="1" arrows="1" fold="1" page="1" pageScale="1" pageWidth="1100" pageHeight="850" math="0" shadow="0">
      <root>
        <mxCell id="0" />
        <mxCell id="1" parent="0" />
        <mxCell id="cjnQrxk-787Fg5uzdjVV-2" value="" style="shape=cylinder3;whiteSpace=wrap;html=1;boundedLbl=1;backgroundOutline=1;size=15;fillColor=#b1ddf0;strokeColor=#10739e;" vertex="1" parent="1">
          <mxGeometry x="685" y="94" width="209" height="489" as="geometry" />
        </mxCell>
        <mxCell id="cjnQrxk-787Fg5uzdjVV-17" style="edgeStyle=orthogonalEdgeStyle;rounded=0;orthogonalLoop=1;jettySize=auto;html=1;entryX=0.5;entryY=0;entryDx=0;entryDy=0;strokeWidth=3;fontSize=14;" edge="1" parent="1" source="cjnQrxk-787Fg5uzdjVV-3" target="cjnQrxk-787Fg5uzdjVV-5">
          <mxGeometry relative="1" as="geometry" />
        </mxCell>
        <mxCell id="cjnQrxk-787Fg5uzdjVV-3" value="MySQL SQL Parse" style="rounded=0;whiteSpace=wrap;html=1;fontSize=14;fontStyle=1" vertex="1" parent="1">
          <mxGeometry x="720.5" y="150" width="138" height="40" as="geometry" />
        </mxCell>
        <mxCell id="cjnQrxk-787Fg5uzdjVV-24" value="" style="edgeStyle=orthogonalEdgeStyle;rounded=0;orthogonalLoop=1;jettySize=auto;html=1;strokeColor=#FF0000;strokeWidth=3;fontSize=14;" edge="1" parent="1">
          <mxGeometry relative="1" as="geometry">
            <mxPoint x="662" y="172" as="targetPoint" />
            <mxPoint x="500" y="172" as="sourcePoint" />
          </mxGeometry>
        </mxCell>
        <mxCell id="cjnQrxk-787Fg5uzdjVV-4" value="&lt;b&gt;Client&lt;/b&gt;" style="ellipse;whiteSpace=wrap;html=1;strokeWidth=2;fontSize=14;" vertex="1" parent="1">
          <mxGeometry x="350" y="145" width="120" height="50" as="geometry" />
        </mxCell>
        <mxCell id="cjnQrxk-787Fg5uzdjVV-19" value="" style="edgeStyle=orthogonalEdgeStyle;rounded=0;orthogonalLoop=1;jettySize=auto;html=1;strokeWidth=3;fontSize=14;" edge="1" parent="1" source="cjnQrxk-787Fg5uzdjVV-5" target="cjnQrxk-787Fg5uzdjVV-6">
          <mxGeometry relative="1" as="geometry" />
        </mxCell>
        <mxCell id="cjnQrxk-787Fg5uzdjVV-5" value="Storage Involve" style="rounded=0;whiteSpace=wrap;html=1;fontSize=14;fontStyle=1" vertex="1" parent="1">
          <mxGeometry x="720.5" y="223" width="138" height="40" as="geometry" />
        </mxCell>
        <mxCell id="cjnQrxk-787Fg5uzdjVV-20" value="" style="edgeStyle=orthogonalEdgeStyle;rounded=0;orthogonalLoop=1;jettySize=auto;html=1;strokeWidth=3;fontSize=14;entryX=0.5;entryY=0;entryDx=0;entryDy=0;" edge="1" parent="1" source="cjnQrxk-787Fg5uzdjVV-6" target="cjnQrxk-787Fg5uzdjVV-7">
          <mxGeometry relative="1" as="geometry" />
        </mxCell>
        <mxCell id="cjnQrxk-787Fg5uzdjVV-6" value="Write Binary Log" style="rounded=0;whiteSpace=wrap;html=1;fontSize=14;fontStyle=1" vertex="1" parent="1">
          <mxGeometry x="720.5" y="295" width="138" height="40" as="geometry" />
        </mxCell>
        <mxCell id="cjnQrxk-787Fg5uzdjVV-21" value="" style="edgeStyle=orthogonalEdgeStyle;rounded=0;orthogonalLoop=1;jettySize=auto;html=1;strokeWidth=3;fontSize=14;" edge="1" parent="1" source="cjnQrxk-787Fg5uzdjVV-7" target="cjnQrxk-787Fg5uzdjVV-9">
          <mxGeometry relative="1" as="geometry" />
        </mxCell>
        <mxCell id="cjnQrxk-787Fg5uzdjVV-7" value="Storage Commit" style="rounded=0;whiteSpace=wrap;html=1;fontSize=14;fontStyle=1" vertex="1" parent="1">
          <mxGeometry x="720.5" y="367" width="138" height="40" as="geometry" />
        </mxCell>
        <mxCell id="cjnQrxk-787Fg5uzdjVV-23" value="" style="edgeStyle=orthogonalEdgeStyle;rounded=0;orthogonalLoop=1;jettySize=auto;html=1;strokeWidth=3;fontSize=14;entryX=0.5;entryY=1;entryDx=0;entryDy=0;strokeColor=#FF0000;" edge="1" parent="1" target="cjnQrxk-787Fg5uzdjVV-4">
          <mxGeometry relative="1" as="geometry">
            <mxPoint x="640.5" y="529" as="targetPoint" />
            <mxPoint x="670" y="529" as="sourcePoint" />
          </mxGeometry>
        </mxCell>
        <mxCell id="cjnQrxk-787Fg5uzdjVV-8" value="Return to Client" style="rounded=0;whiteSpace=wrap;html=1;fontSize=14;fontStyle=1" vertex="1" parent="1">
          <mxGeometry x="720.5" y="509" width="138" height="40" as="geometry" />
        </mxCell>
        <mxCell id="cjnQrxk-787Fg5uzdjVV-22" value="" style="edgeStyle=orthogonalEdgeStyle;rounded=0;orthogonalLoop=1;jettySize=auto;html=1;strokeWidth=3;fontSize=14;" edge="1" parent="1" source="cjnQrxk-787Fg5uzdjVV-9" target="cjnQrxk-787Fg5uzdjVV-8">
          <mxGeometry relative="1" as="geometry" />
        </mxCell>
        <mxCell id="cjnQrxk-787Fg5uzdjVV-9" value="Waiting Slave dump" style="rounded=0;whiteSpace=wrap;html=1;fontSize=14;fontStyle=1;fillColor=#f0a30a;fontColor=#000000;strokeColor=#BD7000;" vertex="1" parent="1">
          <mxGeometry x="720.5" y="436" width="138" height="40" as="geometry" />
        </mxCell>
        <mxCell id="cjnQrxk-787Fg5uzdjVV-25" value="" style="endArrow=classic;html=1;rounded=0;strokeColor=#FF0000;strokeWidth=3;fontSize=14;" edge="1" parent="1">
          <mxGeometry width="50" height="50" relative="1" as="geometry">
            <mxPoint x="622" y="404" as="sourcePoint" />
            <mxPoint x="712" y="451" as="targetPoint" />
          </mxGeometry>
        </mxCell>
        <mxCell id="cjnQrxk-787Fg5uzdjVV-26" value="&lt;b&gt;Semi-sync 等待备库接收日志&lt;/b&gt;" style="text;html=1;align=center;verticalAlign=middle;resizable=0;points=[];autosize=1;strokeColor=none;fillColor=none;fontSize=14;" vertex="1" parent="1">
          <mxGeometry x="426" y="385" width="204" height="29" as="geometry" />
        </mxCell>
        <mxCell id="cjnQrxk-787Fg5uzdjVV-27" value="&lt;b&gt;&lt;font color=&quot;#ff0000&quot;&gt;Commit OK !&lt;/font&gt;&lt;/b&gt;" style="text;html=1;align=center;verticalAlign=middle;resizable=0;points=[];autosize=1;strokeColor=none;fillColor=none;fontSize=14;" vertex="1" parent="1">
          <mxGeometry x="406" y="497" width="104" height="29" as="geometry" />
        </mxCell>
        <mxCell id="cjnQrxk-787Fg5uzdjVV-28" value="&lt;b&gt;&lt;font color=&quot;#ff0000&quot;&gt;Commit&lt;/font&gt;&lt;/b&gt;" style="text;html=1;align=center;verticalAlign=middle;resizable=0;points=[];autosize=1;strokeColor=none;fillColor=none;fontSize=14;" vertex="1" parent="1">
          <mxGeometry x="531" y="145" width="70" height="29" as="geometry" />
        </mxCell>
        <mxCell id="cjnQrxk-787Fg5uzdjVV-29" value="" style="endArrow=classic;html=1;rounded=0;strokeColor=#3399FF;strokeWidth=3;fontSize=14;fontColor=#FF0000;startArrow=none;" edge="1" parent="1" source="cjnQrxk-787Fg5uzdjVV-40">
          <mxGeometry width="50" height="50" relative="1" as="geometry">
            <mxPoint x="154" y="959" as="sourcePoint" />
            <mxPoint x="850" y="959" as="targetPoint" />
          </mxGeometry>
        </mxCell>
        <mxCell id="cjnQrxk-787Fg5uzdjVV-30" value="" style="endArrow=classic;html=1;rounded=0;strokeColor=#3399FF;strokeWidth=3;fontSize=14;fontColor=#FF0000;startArrow=none;" edge="1" parent="1" source="cjnQrxk-787Fg5uzdjVV-43">
          <mxGeometry width="50" height="50" relative="1" as="geometry">
            <mxPoint x="153" y="1035" as="sourcePoint" />
            <mxPoint x="858" y="1035" as="targetPoint" />
          </mxGeometry>
        </mxCell>
        <mxCell id="cjnQrxk-787Fg5uzdjVV-31" value="" style="endArrow=classic;html=1;rounded=0;strokeColor=#3399FF;strokeWidth=3;fontSize=14;fontColor=#FF0000;startArrow=none;" edge="1" parent="1" source="cjnQrxk-787Fg5uzdjVV-41">
          <mxGeometry width="50" height="50" relative="1" as="geometry">
            <mxPoint x="148" y="1124" as="sourcePoint" />
            <mxPoint x="854" y="1124" as="targetPoint" />
          </mxGeometry>
        </mxCell>
        <mxCell id="cjnQrxk-787Fg5uzdjVV-34" value="&lt;font color=&quot;#000000&quot;&gt;Master&lt;/font&gt;" style="text;html=1;align=center;verticalAlign=middle;resizable=0;points=[];autosize=1;strokeColor=none;fillColor=none;fontSize=14;fontColor=#FF0000;" vertex="1" parent="1">
          <mxGeometry x="90" y="945" width="61" height="29" as="geometry" />
        </mxCell>
        <mxCell id="cjnQrxk-787Fg5uzdjVV-35" value="&lt;font color=&quot;#000000&quot;&gt;Slave 1&lt;/font&gt;" style="text;html=1;align=center;verticalAlign=middle;resizable=0;points=[];autosize=1;strokeColor=none;fillColor=none;fontSize=14;fontColor=#FF0000;" vertex="1" parent="1">
          <mxGeometry x="86" y="1017" width="65" height="29" as="geometry" />
        </mxCell>
        <mxCell id="cjnQrxk-787Fg5uzdjVV-36" value="&lt;font color=&quot;#000000&quot;&gt;Slave 2&lt;/font&gt;" style="text;html=1;align=center;verticalAlign=middle;resizable=0;points=[];autosize=1;strokeColor=none;fillColor=none;fontSize=14;fontColor=#FF0000;" vertex="1" parent="1">
          <mxGeometry x="84" y="1110" width="65" height="29" as="geometry" />
        </mxCell>
        <mxCell id="cjnQrxk-787Fg5uzdjVV-37" value="" style="endArrow=none;html=1;rounded=0;strokeColor=#3399FF;strokeWidth=3;fontSize=14;fontColor=#FF0000;" edge="1" parent="1" target="cjnQrxk-787Fg5uzdjVV-33">
          <mxGeometry width="50" height="50" relative="1" as="geometry">
            <mxPoint x="154" y="959" as="sourcePoint" />
            <mxPoint x="960" y="959" as="targetPoint" />
          </mxGeometry>
        </mxCell>
        <mxCell id="cjnQrxk-787Fg5uzdjVV-33" value="&lt;font color=&quot;#000000&quot;&gt;execut&lt;/font&gt;" style="rounded=0;whiteSpace=wrap;html=1;strokeWidth=2;fontSize=14;fontColor=#FF0000;" vertex="1" parent="1">
          <mxGeometry x="198" y="937.75" width="66" height="43.5" as="geometry" />
        </mxCell>
        <mxCell id="cjnQrxk-787Fg5uzdjVV-39" value="" style="endArrow=none;html=1;rounded=0;strokeColor=#3399FF;strokeWidth=3;fontSize=14;fontColor=#FF0000;startArrow=none;" edge="1" parent="1" source="cjnQrxk-787Fg5uzdjVV-33" target="cjnQrxk-787Fg5uzdjVV-38">
          <mxGeometry width="50" height="50" relative="1" as="geometry">
            <mxPoint x="264" y="959" as="sourcePoint" />
            <mxPoint x="960" y="959" as="targetPoint" />
          </mxGeometry>
        </mxCell>
        <mxCell id="cjnQrxk-787Fg5uzdjVV-38" value="&lt;font color=&quot;#000000&quot;&gt;binlog&lt;/font&gt;" style="rounded=0;whiteSpace=wrap;html=1;strokeWidth=2;fontSize=14;fontColor=#FF0000;" vertex="1" parent="1">
          <mxGeometry x="284" y="937.75" width="66" height="43.5" as="geometry" />
        </mxCell>
        <mxCell id="cjnQrxk-787Fg5uzdjVV-42" value="" style="endArrow=none;html=1;rounded=0;strokeColor=#3399FF;strokeWidth=3;fontSize=14;fontColor=#FF0000;" edge="1" parent="1" target="cjnQrxk-787Fg5uzdjVV-41">
          <mxGeometry width="50" height="50" relative="1" as="geometry">
            <mxPoint x="148" y="1124" as="sourcePoint" />
            <mxPoint x="963" y="1124" as="targetPoint" />
          </mxGeometry>
        </mxCell>
        <mxCell id="cjnQrxk-787Fg5uzdjVV-41" value="&lt;font color=&quot;#000000&quot;&gt;relay log&lt;/font&gt;" style="rounded=0;whiteSpace=wrap;html=1;strokeWidth=2;fontSize=14;fontColor=#FF0000;" vertex="1" parent="1">
          <mxGeometry x="404" y="1101" width="66" height="43.5" as="geometry" />
        </mxCell>
        <mxCell id="cjnQrxk-787Fg5uzdjVV-44" value="" style="endArrow=none;html=1;rounded=0;strokeColor=#3399FF;strokeWidth=3;fontSize=14;fontColor=#FF0000;startArrow=none;" edge="1" parent="1" source="cjnQrxk-787Fg5uzdjVV-52" target="cjnQrxk-787Fg5uzdjVV-43">
          <mxGeometry width="50" height="50" relative="1" as="geometry">
            <mxPoint x="153" y="1035" as="sourcePoint" />
            <mxPoint x="963" y="1035" as="targetPoint" />
          </mxGeometry>
        </mxCell>
        <mxCell id="cjnQrxk-787Fg5uzdjVV-43" value="&lt;font color=&quot;#000000&quot;&gt;apply&lt;/font&gt;" style="rounded=0;whiteSpace=wrap;html=1;strokeWidth=2;fontSize=14;fontColor=#FF0000;" vertex="1" parent="1">
          <mxGeometry x="493" y="1015" width="66" height="43.5" as="geometry" />
        </mxCell>
        <mxCell id="cjnQrxk-787Fg5uzdjVV-45" value="&lt;font color=&quot;#000000&quot;&gt;apply&lt;/font&gt;" style="rounded=0;whiteSpace=wrap;html=1;strokeWidth=2;fontSize=14;fontColor=#FF0000;" vertex="1" parent="1">
          <mxGeometry x="495" y="1102.75" width="66" height="43.5" as="geometry" />
        </mxCell>
        <mxCell id="cjnQrxk-787Fg5uzdjVV-46" value="&lt;font color=&quot;#000000&quot;&gt;binlog&lt;/font&gt;" style="rounded=0;whiteSpace=wrap;html=1;strokeWidth=2;fontSize=14;fontColor=#FF0000;" vertex="1" parent="1">
          <mxGeometry x="597" y="1015" width="66" height="43.5" as="geometry" />
        </mxCell>
        <mxCell id="cjnQrxk-787Fg5uzdjVV-47" value="&lt;font color=&quot;#000000&quot;&gt;binlog&lt;/font&gt;" style="rounded=0;whiteSpace=wrap;html=1;strokeWidth=2;fontSize=14;fontColor=#FF0000;" vertex="1" parent="1">
          <mxGeometry x="597" y="1102.75" width="66" height="43.5" as="geometry" />
        </mxCell>
        <mxCell id="cjnQrxk-787Fg5uzdjVV-48" value="&lt;font color=&quot;#000000&quot;&gt;commot&lt;/font&gt;" style="rounded=0;whiteSpace=wrap;html=1;strokeWidth=2;fontSize=14;fontColor=#FF0000;" vertex="1" parent="1">
          <mxGeometry x="736" y="1015" width="66" height="43.5" as="geometry" />
        </mxCell>
        <mxCell id="cjnQrxk-787Fg5uzdjVV-50" value="&lt;font color=&quot;#000000&quot;&gt;commot&lt;/font&gt;" style="rounded=0;whiteSpace=wrap;html=1;strokeWidth=2;fontSize=14;fontColor=#FF0000;" vertex="1" parent="1">
          <mxGeometry x="736" y="1101" width="66" height="43.5" as="geometry" />
        </mxCell>
        <mxCell id="cjnQrxk-787Fg5uzdjVV-53" value="" style="endArrow=none;html=1;rounded=0;strokeColor=#3399FF;strokeWidth=3;fontSize=14;fontColor=#FF0000;" edge="1" parent="1" target="cjnQrxk-787Fg5uzdjVV-52">
          <mxGeometry width="50" height="50" relative="1" as="geometry">
            <mxPoint x="153" y="1035" as="sourcePoint" />
            <mxPoint x="493" y="1037" as="targetPoint" />
          </mxGeometry>
        </mxCell>
        <mxCell id="cjnQrxk-787Fg5uzdjVV-52" value="&lt;font color=&quot;#000000&quot;&gt;relay log&lt;/font&gt;" style="rounded=0;whiteSpace=wrap;html=1;strokeWidth=2;fontSize=14;fontColor=#FF0000;" vertex="1" parent="1">
          <mxGeometry x="402" y="1015" width="66" height="43.5" as="geometry" />
        </mxCell>
        <mxCell id="cjnQrxk-787Fg5uzdjVV-54" value="" style="endArrow=none;html=1;rounded=0;strokeColor=#3399FF;strokeWidth=3;fontSize=14;fontColor=#FF0000;startArrow=none;" edge="1" parent="1" source="cjnQrxk-787Fg5uzdjVV-38" target="cjnQrxk-787Fg5uzdjVV-40">
          <mxGeometry width="50" height="50" relative="1" as="geometry">
            <mxPoint x="350" y="959" as="sourcePoint" />
            <mxPoint x="850" y="959" as="targetPoint" />
          </mxGeometry>
        </mxCell>
        <mxCell id="cjnQrxk-787Fg5uzdjVV-40" value="&lt;font color=&quot;#000000&quot;&gt;commit&lt;/font&gt;" style="rounded=0;whiteSpace=wrap;html=1;strokeWidth=2;fontSize=14;fontColor=#FF0000;" vertex="1" parent="1">
          <mxGeometry x="495" y="937.75" width="66" height="41" as="geometry" />
        </mxCell>
        <mxCell id="cjnQrxk-787Fg5uzdjVV-56" value="" style="endArrow=classic;html=1;rounded=0;strokeColor=#3399FF;strokeWidth=3;fontSize=14;fontColor=#000000;entryX=0;entryY=0.75;entryDx=0;entryDy=0;" edge="1" parent="1" target="cjnQrxk-787Fg5uzdjVV-40">
          <mxGeometry width="50" height="50" relative="1" as="geometry">
            <mxPoint x="468" y="1035" as="sourcePoint" />
            <mxPoint x="518" y="985" as="targetPoint" />
          </mxGeometry>
        </mxCell>
        <mxCell id="cjnQrxk-787Fg5uzdjVV-57" value="" style="endArrow=classic;html=1;rounded=0;strokeColor=#3399FF;strokeWidth=3;fontSize=14;fontColor=#000000;entryX=0.379;entryY=1.006;entryDx=0;entryDy=0;entryPerimeter=0;" edge="1" parent="1" target="cjnQrxk-787Fg5uzdjVV-40">
          <mxGeometry width="50" height="50" relative="1" as="geometry">
            <mxPoint x="472" y="1124" as="sourcePoint" />
            <mxPoint x="491" y="1065" as="targetPoint" />
          </mxGeometry>
        </mxCell>
        <mxCell id="cjnQrxk-787Fg5uzdjVV-58" value="ACK" style="text;html=1;align=center;verticalAlign=middle;resizable=0;points=[];autosize=1;strokeColor=none;fillColor=none;fontSize=14;fontColor=#000000;" vertex="1" parent="1">
          <mxGeometry x="524" y="983" width="47" height="29" as="geometry" />
        </mxCell>
        <mxCell id="cjnQrxk-787Fg5uzdjVV-59" value="ACK" style="text;html=1;align=center;verticalAlign=middle;resizable=0;points=[];autosize=1;strokeColor=none;fillColor=none;fontSize=14;fontColor=#000000;" vertex="1" parent="1">
          <mxGeometry x="527" y="1072" width="47" height="29" as="geometry" />
        </mxCell>
      </root>
    </mxGraphModel>
  </diagram>
</mxfile>
